<?xml version="1.0" standalone="no"?>
<!DOCTYPE svg PUBLIC "-//W3C//DTD SVG 20010904//EN"
 "http://www.w3.org/TR/2001/REC-SVG-20010904/DTD/svg10.dtd">
<svg version="1.0" xmlns="http://www.w3.org/2000/svg"
 width="512.000000pt" height="512.000000pt" viewBox="0 0 512.000000 512.000000"
 preserveAspectRatio="xMidYMid meet">

<g transform="translate(0.000000,512.000000) scale(0.10s0000,-0.100000)"
fill="#000000" stroke="none">
<path d="M2287 4494 c-21 -8 -45 -21 -53 -29 -9 -8 -20 -15 -25 -15 -5 0 -17
-7 -26 -15 -10 -8 -27 -22 -38 -31 -11 -8 -15 -13 -9 -10 7 3 15 -1 18 -9 4
-12 0 -14 -22 -8 -25 6 -26 5 -12 -12 9 -11 10 -16 3 -11 -7 4 -13 3 -13 -3 0
-5 4 -13 10 -16 20 -12 230 38 230 55 0 4 -20 13 -45 20 -43 12 -45 14 -29 31
9 10 25 21 35 24 10 3 17 15 16 25 -1 11 -1 19 -2 19 0 -1 -17 -8 -38 -15z"/>
<path d="M3961 4093 c-1 -40 3 -54 17 -62 16 -10 16 -10 0 -11 -15 0 -18 -10
-20 -62 -2 -92 -7 -139 -20 -178 -34 -101 -34 -100 -7 -93 25 7 36 33 60 148
26 123 24 295 -3 295 -6 0 -8 -7 -4 -15 3 -8 1 -15 -4 -15 -5 0 -11 10 -13 23
-2 12 -5 -1 -6 -30z m26 -35 c2 -18 0 -20 -7 -8 -12 18 -13 30 -2 30 4 0 9
-10 9 -22z"/>
<path d="M2940 3922 c0 -7 -5 -10 -12 -6 -8 5 -9 0 -4 -17 4 -13 8 -31 9 -39
1 -8 9 -26 17 -40 8 -14 13 -36 11 -49 -1 -13 1 -21 7 -18 5 4 9 -14 10 -38 0
-44 -13 -60 -24 -30 -5 13 -8 12 -22 -1 -12 -13 -13 -20 -4 -35 6 -10 9 -25 6
-32 -3 -8 2 -21 10 -30 18 -18 21 -37 5 -37 -5 0 -9 -8 -8 -17 2 -17 -2 -30
-22 -81 -5 -13 -9 -31 -9 -41 0 -10 -9 -21 -21 -24 -16 -4 -19 -2 -15 10 5 13
4 14 -9 3 -8 -7 -12 -16 -9 -21 3 -5 0 -9 -5 -9 -6 0 -11 -10 -11 -23 0 -13
-9 -33 -20 -45 -24 -26 -24 -26 -2 -48 16 -17 16 -17 0 -11 -10 3 -20 2 -23
-4 -4 -5 -10 -7 -15 -4 -5 3 -12 -6 -16 -20 -3 -14 -12 -25 -20 -25 -8 0 -14
-4 -14 -10 0 -5 8 -7 18 -3 15 6 15 4 -2 -15 -22 -26 -40 -19 -30 11 6 19 5
20 -9 8 -9 -7 -14 -17 -11 -22 6 -11 -35 -48 -54 -49 -8 0 -10 -5 -6 -12 4 -7
4 -10 -1 -6 -4 4 -17 3 -28 -3 -15 -9 -18 -8 -11 3 6 11 5 11 -8 0 -14 -11
-18 -10 -27 5 -9 15 -10 16 -11 2 0 -9 -7 -22 -15 -29 -15 -13 -21 -35 -7 -26
4 2 8 -4 8 -14 0 -10 -3 -18 -6 -18 -3 1 -13 -2 -23 -7 -10 -4 -23 -2 -31 4
-11 9 -15 7 -19 -11 -4 -12 -9 -19 -12 -16 -10 10 14 48 30 48 8 0 15 -5 15
-11 0 -5 5 -7 11 -4 6 4 8 13 5 21 -3 7 -1 16 4 19 6 4 10 14 10 23 0 14 -2
14 -9 3 -5 -8 -14 -10 -21 -6 -9 5 -11 4 -6 -3 4 -7 2 -12 -4 -12 -6 0 -8 -4
-5 -10 3 -5 1 -10 -4 -10 -6 0 -11 6 -11 13 0 7 -9 13 -20 13 -11 0 -20 -4
-20 -8 0 -4 -9 -8 -20 -8 -11 0 -20 -4 -20 -10 0 -16 -18 -12 -38 8 -18 18
-19 18 -31 -9 -13 -29 -48 -52 -37 -24 3 8 1 15 -3 15 -5 0 -14 -12 -20 -27
-9 -24 -10 -21 -5 20 5 33 3 47 -6 47 -7 0 -9 8 -5 20 7 22 -12 28 -21 6 -3
-8 -15 -11 -29 -8 -14 2 -22 8 -19 13 3 5 10 7 15 4 5 -4 9 3 9 14 0 10 -3 21
-7 24 -5 2 -3 2 4 1 7 -2 15 0 17 5 3 4 19 7 35 6 18 -1 28 2 24 8 -4 6 2 8
15 5 12 -4 25 -2 28 3 3 5 9 7 14 4 8 -5 37 15 76 53 7 6 17 12 23 12 6 0 20
17 31 38 11 20 25 44 30 52 15 22 33 72 36 98 2 12 5 35 7 51 3 16 2 32 -1 36
-3 3 -8 29 -10 58 -2 29 -7 54 -12 57 -4 3 -10 15 -14 28 -4 12 -19 36 -33 52
-14 17 -23 37 -20 45 4 9 1 12 -9 8 -7 -3 -14 -9 -14 -14 0 -20 -20 -7 -21 14
0 20 -1 20 -8 3 -6 -14 -10 -16 -15 -7 -5 7 -14 10 -21 7 -7 -2 -21 1 -31 9
-19 14 -104 10 -114 -5 -8 -12 -54 -24 -46 -11 5 7 1 9 -9 5 -9 -4 -14 -13
-11 -21 6 -14 -32 -35 -46 -26 -5 2 -8 -3 -8 -11 0 -14 -10 -20 -31 -18 -3 0
-13 -14 -23 -33 -10 -19 -33 -41 -50 -49 -17 -9 -25 -16 -18 -16 6 0 12 -8 12
-17 0 -15 -2 -16 -10 -3 -7 11 -10 7 -10 -17 0 -27 -3 -31 -22 -26 -22 4 -22
4 -5 -10 18 -15 7 -35 -12 -23 -10 6 -44 -28 -36 -36 3 -3 -2 -11 -10 -18 -14
-12 -15 -10 -10 13 5 16 2 33 -5 42 -10 13 -15 12 -31 -8 -18 -20 -20 -21 -30
-4 -7 12 -17 15 -35 11 -18 -5 -24 -2 -24 10 0 9 -6 13 -14 10 -8 -3 -12 -15
-10 -27 2 -12 2 -16 -2 -9 -3 6 -10 10 -15 6 -5 -3 -9 0 -9 6 0 7 -6 10 -14 7
-7 -3 -18 -1 -24 5 -6 6 -12 1 -16 -16 -7 -29 -26 -35 -26 -9 0 14 -3 14 -20
-5 -20 -21 -28 -48 -11 -37 5 3 13 0 17 -6 4 -8 3 -9 -4 -5 -7 4 -12 3 -12 -2
0 -5 -9 -9 -20 -8 -11 0 -19 -3 -19 -9 1 -14 -35 -24 -43 -11 -5 7 -8 6 -8 -3
0 -8 8 -20 18 -28 9 -8 12 -12 5 -9 -6 4 -15 1 -18 -5 -4 -5 -13 -8 -21 -5 -8
3 -14 1 -14 -5 0 -28 -19 6 -24 45 l-7 45 -31 -11 c-28 -10 -33 -8 -50 12 -10
12 -18 28 -18 36 0 23 40 56 61 51 15 -4 19 -1 15 11 -3 9 -8 29 -12 45 -8 33
-18 34 -49 3 -28 -29 -53 -107 -61 -196 -6 -55 -3 -75 15 -116 12 -27 34 -59
49 -71 20 -17 23 -22 10 -23 -9 0 -28 14 -42 31 -14 17 -26 27 -26 22 0 -22
65 -83 105 -98 54 -21 69 -16 93 32 27 52 49 70 104 84 44 12 53 11 165 -25
65 -21 145 -51 178 -65 33 -15 79 -33 103 -41 46 -15 82 -50 82 -82 0 -13 -35
-41 -117 -94 -187 -120 -245 -161 -303 -212 -77 -67 -246 -268 -276 -327 -14
-27 -32 -61 -41 -75 -9 -14 6 -4 33 23 54 51 64 56 64 30 0 -16 -2 -16 -11 -3
-9 12 -10 11 -6 -8 3 -13 -1 -29 -10 -37 -9 -9 -12 -23 -8 -33 3 -9 7 -19 7
-22 0 -3 13 -41 29 -85 39 -113 149 -305 175 -305 8 0 14 -8 14 -17 0 -9 3
-13 7 -10 3 4 32 -17 63 -46 30 -28 69 -60 85 -69 31 -18 41 -25 110 -69 90
-59 273 -139 317 -139 4 0 8 68 8 151 l0 152 35 33 c35 32 100 58 132 52 13
-3 15 -19 13 -103 -1 -55 -3 -115 -4 -133 -2 -18 1 -35 6 -38 4 -3 6 -9 3 -14
-3 -5 5 -12 17 -16 21 -7 20 -9 -12 -14 l-35 -5 -3 -299 c-1 -193 1 -303 8
-310 12 -12 13 -151 3 -389 l-6 -167 -35 0 c-33 0 -34 -1 -28 -30 13 -70 38
-140 47 -135 5 4 9 14 9 23 0 9 5 24 10 32 8 11 9 7 4 -14 -7 -28 -5 -28 62
26 131 106 203 219 224 351 21 129 31 161 76 235 75 124 56 167 -105 233 l-81
33 0 165 c0 165 0 166 23 167 12 1 40 7 62 13 22 6 54 11 72 11 41 0 227 62
306 101 207 104 366 227 477 367 33 42 66 84 74 92 23 27 85 161 106 230 11
37 27 71 35 74 8 3 15 13 15 22 0 9 20 34 44 56 90 78 179 256 201 399 19 120
19 116 -6 122 -13 3 -25 4 -28 2 -2 -3 2 -5 10 -5 25 0 -13 -20 -41 -21 l-25
-1 25 -7 c21 -6 18 -9 -24 -15 -30 -5 -44 -11 -37 -16 7 -4 -17 -8 -54 -9
l-66 -1 18 31 c10 17 27 38 38 48 66 54 193 302 162 315 -7 2 -4 5 6 5 9 1 17
4 18 9 1 7 4 20 14 62 4 14 7 31 7 38 1 6 4 12 8 12 4 0 7 6 7 13 0 6 5 39 12
71 17 89 15 106 -11 107 -22 1 -22 1 2 9 14 4 19 8 11 9 -11 1 -10 5 5 16 30
22 8 18 -44 -10 -40 -21 -43 -25 -22 -26 l25 0 -25 -10 c-19 -8 -21 -12 -11
-18 10 -6 4 -11 -19 -16 -24 -5 -29 -10 -19 -16 10 -6 4 -11 -21 -16 l-35 -7
35 -7 35 -6 -40 -3 c-39 -2 -39 -3 -10 -10 29 -7 29 -8 -10 -10 l-40 -3 35 -7
35 -7 -40 -3 c-39 -2 -39 -3 -10 -10 28 -7 27 -8 -15 -10 l-45 -3 40 -7 40 -7
-40 -3 -40 -3 35 -7 35 -7 -45 -3 -45 -3 35 -7 35 -7 -40 -2 c-30 -1 -36 -4
-25 -11 10 -7 0 -8 -35 -5 -44 4 -45 3 -12 -4 55 -12 55 -19 0 -15 l-48 3 44
-9 c64 -14 62 -19 -5 -15 l-59 4 54 -10 c77 -13 78 -22 1 -15 -44 3 -55 2 -35
-3 24 -7 14 -9 -50 -12 l-80 -3 70 -6 70 -6 -70 -4 -70 -3 115 -12 c104 -11
109 -12 55 -15 l-60 -3 55 -7 55 -7 -55 -3 -55 -3 55 -7 55 -7 -45 -2 c-25 -1
-67 -8 -95 -16 l-50 -15 45 5 45 4 -45 -14 -45 -14 65 4 65 4 -70 -13 c-47 -9
-60 -14 -40 -16 26 -2 24 -4 -20 -15 l-50 -14 50 4 50 5 -50 -14 c-27 -8 -44
-14 -36 -15 29 -2 -2 -16 -52 -23 l-52 -7 58 3 c33 2 52 -1 45 -5 -7 -5 -35
-9 -63 -10 -44 -1 -46 -2 -20 -9 l30 -8 -30 -1 c-21 -1 -26 -4 -17 -10 8 -4
13 -12 12 -17 -1 -5 9 -12 22 -16 21 -5 20 -6 -7 -8 l-30 -2 30 -8 c29 -7 29
-8 -10 -9 -31 -1 -37 -4 -25 -12 11 -8 4 -9 -28 -6 -39 5 -41 4 -25 -9 10 -7
32 -14 48 -15 30 -2 30 -2 -5 -9 l-35 -7 40 -3 40 -3 -35 -5 c-33 -5 -34 -5
-10 -12 22 -7 20 -8 -15 -10 -38 -2 -39 -3 -10 -9 29 -7 29 -7 -12 -14 -24 -4
-43 -11 -43 -16 0 -5 19 -13 43 -17 l42 -7 -35 -9 c-44 -12 -46 -14 -30 -33 7
-9 10 -18 6 -22 -3 -3 -6 -1 -6 5 0 7 -4 12 -10 12 -5 0 -9 -6 -7 -12 2 -14
-43 -13 -53 0 -3 5 -16 5 -30 1 -23 -6 -23 -7 -3 -8 32 -1 58 -51 27 -51 -9 0
-12 5 -9 10 3 6 2 10 -4 10 -5 0 -13 -5 -16 -10 -4 -6 -11 -8 -16 -5 -13 9
-50 -5 -44 -16 4 -5 -11 -10 -32 -11 l-38 -1 45 -7 45 -7 -50 -3 c-49 -3 -48
-4 20 -10 l70 -6 -80 -3 -80 -3 53 -8 c71 -11 77 -20 11 -16 -31 2 -39 1 -19
-2 29 -5 21 -8 -50 -18 l-85 -13 70 4 c39 3 86 1 105 -4 32 -9 30 -9 -17 -6
-28 2 -71 0 -95 -3 l-43 -6 35 -7 c33 -6 32 -6 -13 -8 -33 -1 -46 3 -41 10 5
8 1 8 -14 0 -11 -6 -54 -12 -94 -13 l-73 -2 75 -6 75 -6 -90 -4 -90 -4 95 -6
c98 -6 81 -9 -93 -13 -80 -2 -106 4 -74 16 6 3 -3 6 -20 6 -22 1 -33 6 -33 16
0 8 -9 15 -21 15 -19 0 -18 -4 13 -47 27 -38 134 -122 157 -123 3 -1 29 -7 56
-15 l50 -14 -45 -2 c-28 -2 -12 -5 45 -9 l90 -6 -120 -4 c-66 -2 -99 -5 -72
-7 26 -2 47 -7 47 -11 0 -4 -21 -6 -47 -5 -35 2 -41 0 -23 -5 24 -8 24 -8 5
-17 -17 -7 -16 -9 15 -15 l35 -7 -32 -2 c-17 0 -38 6 -47 14 -8 8 -23 15 -33
14 -16 0 -16 -1 2 -9 l20 -9 -20 0 c-11 -1 -31 -4 -45 -6 -21 -5 -22 -4 -5 3
17 8 13 10 -20 14 -22 3 -41 4 -43 2 -6 -4 19 -47 69 -116 27 -37 49 -70 49
-73 0 -3 -9 -1 -21 5 -11 7 -23 9 -27 6 -3 -4 -17 4 -30 16 l-25 23 13 -25 c7
-14 22 -38 33 -55 11 -16 -4 -5 -33 25 l-53 55 29 -50 c15 -27 34 -56 41 -63
24 -25 13 -26 -13 -1 -24 22 -27 23 -38 7 -12 -16 -14 -16 -29 -1 -20 20 -35
10 -17 -12 8 -9 8 -15 2 -15 -6 0 -14 5 -17 10 -4 6 -11 8 -16 5 -5 -3 -6 1
-3 9 3 9 -4 27 -15 42 -24 31 -29 19 -5 -14 14 -20 14 -22 0 -22 -19 0 -20 -5
-6 -31 7 -12 7 -19 1 -19 -5 0 -13 9 -16 20 -3 11 -13 20 -21 20 -8 0 -14 5
-14 12 0 6 -3 8 -6 5 -4 -4 -1 -13 6 -22 12 -15 4 -21 -24 -16 -4 1 -15 -4
-22 -10 -12 -10 -18 -8 -30 7 -15 18 -15 18 -10 -8 8 -38 -7 -42 -28 -7 -21
36 -35 38 -28 4 2 -15 0 -25 -7 -25 -6 0 -11 15 -11 34 0 29 -3 33 -19 29 -22
-6 -33 -49 -17 -66 16 -18 36 -77 25 -77 -5 0 -9 7 -9 15 0 8 -4 15 -10 15 -5
0 -10 4 -10 9 0 5 -12 29 -26 52 -25 44 -25 44 -22 12 3 -18 1 -30 -3 -27 -12
7 -39 66 -39 85 0 16 -4 15 -25 -7 -24 -24 -45 -25 -45 -2 0 6 -7 20 -16 30
-16 16 -18 17 -29 1 -14 -19 -35 -10 -35 16 0 11 -10 22 -22 26 -17 4 -19 8
-9 12 8 3 22 -4 32 -16 21 -26 24 -26 26 1 3 29 -14 58 -33 58 -41 0 -75 103
-39 116 8 4 15 10 15 15 0 4 -6 6 -13 3 -8 -3 -14 2 -14 10 0 8 6 12 16 9 13
-5 14 -3 4 7 -9 9 -9 18 -1 33 7 14 7 22 -2 27 -9 5 -10 17 -5 36 6 26 8 27
15 9 6 -17 7 -17 12 7 3 15 0 32 -5 37 -8 8 -5 22 8 48 10 21 18 44 16 51 -1
6 5 12 14 12 8 0 15 5 15 11 0 21 43 81 49 70 5 -7 15 -6 33 3 15 8 29 12 31
10 2 -3 17 0 32 6 16 6 40 13 54 15 14 2 43 8 64 13 20 6 37 8 37 5 0 -3 7 0
15 7 8 7 22 10 30 6 8 -3 15 -1 15 4 0 6 9 10 19 10 11 0 23 5 26 10 3 6 13
10 21 10 14 0 144 59 154 70 3 3 32 23 65 44 73 47 169 118 173 129 2 4 10 7
18 7 8 0 14 6 14 14 0 8 9 18 20 21 11 3 20 12 20 19 0 15 66 77 73 70 3 -3 8
4 12 15 3 12 11 21 17 21 5 0 8 5 6 12 -2 6 9 25 24 42 37 40 78 123 81 163 1
17 5 29 9 27 3 -2 12 12 18 32 7 19 18 38 25 41 8 2 11 12 8 20 -5 12 -3 14 8
8 11 -6 12 -5 2 6 -7 7 -13 21 -13 30 0 9 -7 22 -15 29 -9 7 -13 15 -11 17 3
3 -17 35 -43 72 -26 36 -63 93 -81 125 -32 56 -63 96 -76 96 -3 0 -2 -5 1 -10
4 -7 -2 -9 -19 -4 -21 5 -26 3 -26 -12 0 -16 -3 -16 -20 6 -11 14 -20 19 -20
12z m20 -45 c0 -13 5 -28 11 -34 8 -8 8 -13 0 -18 -11 -6 -15 0 -25 48 -4 15
-2 27 4 27 5 0 10 -10 10 -23z m6 -226 c-3 -5 1 -14 9 -21 17 -14 21 -35 5
-25 -5 3 -10 1 -10 -4 0 -6 -4 -11 -10 -11 -5 0 -10 16 -10 35 0 19 5 35 11
35 5 0 8 -4 5 -9z m-669 -28 c32 -43 -8 -123 -62 -123 -49 0 -94 77 -67 116
24 36 105 41 129 7z m-646 -166 c-10 -9 -11 -8 -5 6 3 10 9 15 12 12 3 -3 0
-11 -7 -18z m189 -2 c-7 -9 -15 -13 -17 -11 -7 7 7 26 19 26 6 0 6 -6 -2 -15z
m-83 -1 c-3 -3 -12 -4 -19 -1 -8 3 -5 6 6 6 11 1 17 -2 13 -5z m2130 -60 c-3
-3 -12 -4 -19 -1 -8 3 -5 6 6 6 11 1 17 -2 13 -5z m-40 -20 c-3 -3 -12 -4 -19
-1 -8 3 -5 6 6 6 11 1 17 -2 13 -5z m-955 -56 c-9 -9 -12 -8 -12 5 0 10 -5 14
-15 11 -20 -8 -19 1 2 22 16 16 18 15 27 -5 6 -15 6 -25 -2 -33z m971 35 c-7
-2 -21 -2 -30 0 -10 3 -4 5 12 5 17 0 24 -2 18 -5z m-80 -30 c-7 -2 -21 -2
-30 0 -10 3 -4 5 12 5 17 0 24 -2 18 -5z m-941 -35 c-7 -7 -12 -8 -12 -2 0 6
3 14 7 17 3 4 9 5 12 2 2 -3 -1 -11 -7 -17z m941 15 c-7 -2 -21 -2 -30 0 -10
3 -4 5 12 5 17 0 24 -2 18 -5z m-893 -7 c0 -3 -4 -8 -10 -11 -5 -3 -10 -1 -10
4 0 6 5 11 10 11 6 0 10 -2 10 -4z m873 -73 c-13 -2 -33 -2 -45 0 -13 2 -3 4
22 4 25 0 35 -2 23 -4z m-35 -50 c-10 -2 -28 -2 -40 0 -13 2 -5 4 17 4 22 1
32 -1 23 -4z m-31 -19 c-3 -3 -12 -4 -19 -1 -8 3 -5 6 6 6 11 1 17 -2 13 -5z
m-60 -30 c-3 -3 -12 -4 -19 -1 -8 3 -5 6 6 6 11 1 17 -2 13 -5z m-1066 -67
c-7 -7 -14 -8 -21 -1 -6 6 -2 10 12 11 16 2 18 -1 9 -10z m-137 -32 c-4 -8
-11 -15 -16 -15 -6 0 -5 6 2 15 7 8 14 15 16 15 2 0 1 -7 -2 -15z m-79 -24
c-3 -6 -11 -11 -17 -11 -6 0 -6 6 2 15 14 17 26 13 15 -4z m-251 -72 c-15 -16
-73 -52 -128 -80 -56 -29 -97 -48 -93 -43 4 4 61 48 125 96 84 62 118 82 120
71 2 -8 -9 -28 -24 -44z m358 29 c-7 -7 -12 -8 -12 -2 0 14 12 26 19 19 2 -3
-1 -11 -7 -17z m-92 -14 c0 -8 -4 -12 -10 -9 -5 3 -10 1 -10 -6 0 -7 -3 -9 -6
-6 -4 4 -1 13 6 22 16 19 20 19 20 -1z m-130 -24 c0 -5 -5 -10 -11 -10 -5 0
-7 5 -4 10 3 6 8 10 11 10 2 0 4 -4 4 -10z m1195 -60 c3 -5 2 -10 -4 -10 -5 0
-13 5 -16 10 -3 6 -2 10 4 10 5 0 13 -4 16 -10z m-148 -176 c-3 -3 -12 -4 -19
-1 -8 3 -5 6 6 6 11 1 17 -2 13 -5z m-50 -70 c-3 -3 -12 -4 -19 -1 -8 3 -5 6
6 6 11 1 17 -2 13 -5z m-49 -41 c-10 -2 -26 -2 -35 0 -10 3 -2 5 17 5 19 0 27
-2 18 -5z m-143 -23 c3 -5 1 -10 -4 -10 -6 0 -11 5 -11 10 0 6 2 10 4 10 3 0
8 -4 11 -10z m-175 -36 c-34 -7 -108 -8 -103 -1 2 4 30 6 61 6 31 -1 50 -3 42
-5z m128 -1 c-10 -2 -28 -2 -40 0 -13 2 -5 4 17 4 22 1 32 -1 23 -4z m-75 -10
c-7 -2 -19 -2 -25 0 -7 3 -2 5 12 5 14 0 19 -2 13 -5z m-70 -10 c-13 -2 -33
-2 -45 0 -13 2 -3 4 22 4 25 0 35 -2 23 -4z m-868 -333 c3 -5 2 -10 -4 -10 -5
0 -13 5 -16 10 -3 6 -2 10 4 10 5 0 13 -4 16 -10z m769 -46 c9 -24 7 -28 -9
-14 -17 14 -20 30 -6 30 5 0 12 -7 15 -16z m36 -39 c11 -13 10 -14 -4 -9 -9 3
-16 10 -16 15 0 13 6 11 20 -6z m-252 -81 c-10 -10 -28 6 -28 24 0 15 1 15 17
-1 9 -9 14 -19 11 -23z m-53 6 c10 -11 14 -20 9 -20 -5 0 -15 9 -22 20 -7 11
-11 20 -9 20 2 0 12 -9 22 -20z m-265 0 c0 -5 -4 -10 -10 -10 -5 0 -10 5 -10
10 0 6 5 10 10 10 6 0 10 -4 10 -10z m163 -4 c3 -8 -2 -16 -14 -19 -16 -4 -17
-2 -8 14 12 23 15 23 22 5z"/>
<path d="M2911 3824 c0 -11 3 -14 6 -6 3 7 2 16 -1 19 -3 4 -6 -2 -5 -13z"/>
<path d="M2910 3790 c0 -5 5 -10 10 -10 6 0 10 5 10 10 0 6 -4 10 -10 10 -5 0
-10 -4 -10 -10z"/>
<path d="M2920 3753 c0 -5 7 -18 15 -29 12 -16 14 -16 15 -3 0 9 -7 22 -15 29
-8 7 -15 8 -15 3z"/>
<path d="M2893 3690 c0 -38 1 -39 14 -20 12 17 12 23 0 40 -13 19 -14 18 -14
-20z"/>
<path d="M2886 3444 c-5 -14 -4 -15 9 -4 17 14 19 20 6 20 -5 0 -12 -7 -15
-16z"/>
<path d="M3748 3423 c6 -2 18 -2 25 0 6 3 1 5 -13 5 -14 0 -19 -2 -12 -5z"/>
<path d="M3518 3293 c7 -3 16 -2 19 1 4 3 -2 6 -13 5 -11 0 -14 -3 -6 -6z"/>
<path d="M3583 3283 c20 -2 54 -2 75 0 20 2 3 4 -38 4 -41 0 -58 -2 -37 -4z"/>
<path d="M3408 3273 c7 -3 16 -2 19 1 4 3 -2 6 -13 5 -11 0 -14 -3 -6 -6z"/>
<path d="M3578 3263 c23 -2 59 -2 80 0 20 2 1 4 -43 4 -44 0 -61 -2 -37 -4z"/>
<path d="M3388 3253 c6 -2 18 -2 25 0 6 3 1 5 -13 5 -14 0 -19 -2 -12 -5z"/>
<path d="M3568 3243 c23 -2 61 -2 85 0 23 2 4 4 -43 4 -47 0 -66 -2 -42 -4z"/>
<path d="M2741 3224 c0 -11 3 -14 6 -6 3 7 2 16 -1 19 -3 4 -6 -2 -5 -13z"/>
<path d="M3398 3233 c7 -3 16 -2 19 1 4 3 -2 6 -13 5 -11 0 -14 -3 -6 -6z"/>
<path d="M3538 3223 c12 -2 30 -2 40 0 9 3 -1 5 -23 4 -22 0 -30 -2 -17 -4z"/>
<path d="M2671 3211 c-8 -5 -9 -11 -3 -15 5 -3 12 1 16 9 6 17 6 18 -13 6z"/>
<path d="M3518 3203 c18 -2 45 -2 60 0 15 2 0 4 -33 4 -33 0 -45 -2 -27 -4z"/>
<path d="M3487 3183 c18 -2 50 -2 70 0 21 2 7 4 -32 4 -38 0 -55 -2 -38 -4z"/>
<path d="M2653 3156 c2 -27 11 -34 23 -15 3 6 0 18 -9 26 -13 14 -15 13 -14
-11z"/>
<path d="M2595 3159 c-4 -6 -5 -12 -2 -15 2 -3 7 2 10 11 7 17 1 20 -8 4z"/>
<path d="M3468 3163 c12 -2 32 -2 45 0 12 2 2 4 -23 4 -25 0 -35 -2 -22 -4z"/>
<path d="M3568 3163 c7 -3 16 -2 19 1 4 3 -2 6 -13 5 -11 0 -14 -3 -6 -6z"/>
<path d="M3438 3143 c12 -2 30 -2 40 0 9 3 -1 5 -23 4 -22 0 -30 -2 -17 -4z"/>
<path d="M3528 3133 c7 -3 16 -2 19 1 4 3 -2 6 -13 5 -11 0 -14 -3 -6 -6z"/>
<path d="M3423 3123 c9 -2 25 -2 35 0 9 3 1 5 -18 5 -19 0 -27 -2 -17 -5z"/>
<path d="M3503 3113 c9 -2 25 -2 35 0 9 3 1 5 -18 5 -19 0 -27 -2 -17 -5z"/>
<path d="M3353 3103 c9 -2 25 -2 35 0 9 3 1 5 -18 5 -19 0 -27 -2 -17 -5z"/>
<path d="M3423 3103 c9 -2 23 -2 30 0 6 3 -1 5 -18 5 -16 0 -22 -2 -12 -5z"/>
<path d="M3418 3083 c7 -3 16 -2 19 1 4 3 -2 6 -13 5 -11 0 -14 -3 -6 -6z"/>
<path d="M2360 3064 c0 -12 4 -12 20 -4 11 6 20 12 20 13 0 2 -9 3 -20 4 -12
1 -20 -4 -20 -13z"/>
<path d="M3383 3043 c9 -2 25 -2 35 0 9 3 1 5 -18 5 -19 0 -27 -2 -17 -5z"/>
<path d="M1215 2990 c-3 -5 3 -40 14 -77 10 -37 23 -103 29 -146 6 -47 16 -83
25 -90 8 -7 21 -25 29 -41 l15 -29 6 24 c3 13 13 77 23 142 l18 117 -22 30
c-18 24 -19 28 -5 23 17 -7 14 4 -11 36 -9 11 -12 9 -16 -14 -3 -16 -11 -30
-18 -33 -7 -2 -12 0 -11 5 1 4 1 19 0 32 l-1 23 -18 -22 c-17 -21 -19 -21 -32
-4 -9 11 -10 15 -2 10 7 -4 12 -1 12 8 0 17 -25 22 -35 6z"/>
<path d="M3338 2973 c6 -2 18 -2 25 0 6 3 1 5 -13 5 -14 0 -19 -2 -12 -5z"/>
<path d="M3358 2953 c7 -3 16 -2 19 1 4 3 -2 6 -13 5 -11 0 -14 -3 -6 -6z"/>
<path d="M3308 2933 c6 -2 18 -2 25 0 6 3 1 5 -13 5 -14 0 -19 -2 -12 -5z"/>
<path d="M3318 2913 c7 -3 16 -2 19 1 4 3 -2 6 -13 5 -11 0 -14 -3 -6 -6z"/>
<path d="M3358 2903 c7 -3 16 -2 19 1 4 3 -2 6 -13 5 -11 0 -14 -3 -6 -6z"/>
<path d="M3328 2868 c5 -5 16 -8 23 -6 8 3 3 7 -10 11 -17 4 -21 3 -13 -5z"/>
<path d="M3338 2803 c6 -2 18 -2 25 0 6 3 1 5 -13 5 -14 0 -19 -2 -12 -5z"/>
<path d="M2928 2633 c7 -3 16 -2 19 1 4 3 -2 6 -13 5 -11 0 -14 -3 -6 -6z"/>
<path d="M3063 2623 c9 -2 25 -2 35 0 9 3 1 5 -18 5 -19 0 -27 -2 -17 -5z"/>
<path d="M2646 2605 c4 -8 8 -15 10 -15 2 0 4 7 4 15 0 8 -4 15 -10 15 -5 0
-7 -7 -4 -15z"/>
<path d="M2978 2583 c7 -3 16 -2 19 1 4 3 -2 6 -13 5 -11 0 -14 -3 -6 -6z"/>
<path d="M2778 2543 c6 -2 18 -2 25 0 6 3 1 5 -13 5 -14 0 -19 -2 -12 -5z"/>
<path d="M2037 2260 c-9 -11 -12 -20 -6 -20 5 0 7 -4 4 -10 -3 -5 -1 -10 5
-10 7 0 10 6 7 13 -2 6 0 20 5 30 12 23 6 22 -15 -3z"/>
<path d="M2620 2132 c6 -13 14 -21 18 -18 3 4 -2 14 -12 24 -18 16 -18 16 -6
-6z"/>
<path d="M2585 2117 c1 -12 5 -21 9 -20 20 5 22 10 6 25 -16 17 -17 17 -15 -5z"/>
<path d="M2166 2117 c3 -10 9 -15 12 -12 3 3 0 11 -7 18 -10 9 -11 8 -5 -6z"/>
<path d="M2512 2095 c6 -14 15 -25 20 -25 12 0 9 12 -6 33 -19 25 -27 21 -14
-8z"/>
<path d="M2636 2085 c4 -8 10 -12 15 -9 14 8 10 24 -6 24 -9 0 -12 -6 -9 -15z"/>
<path d="M2270 2061 c0 -6 4 -13 10 -16 6 -3 7 1 4 9 -7 18 -14 21 -14 7z"/>
<path d="M2445 2060 c3 -5 8 -10 11 -10 2 0 4 5 4 10 0 6 -5 10 -11 10 -5 0
-7 -4 -4 -10z"/>
<path d="M2318 1567 c-67 -40 -65 -33 -73 -367 l-7 -305 28 26 c16 14 46 36
67 48 l37 23 0 299 c0 164 -3 299 -7 299 -5 0 -25 -10 -45 -23z"/>
<path d="M2295 622 c-27 -6 -36 -22 -24 -44 15 -27 47 -23 55 8 8 30 -3 42
-31 36z"/>
</g>
</svg>
